<svg preserveAspectRatio="xMidYMid meet" data-bbox="-0.03 -0.07 196.66 227.05" viewBox="-0.03 -0.07 196.66 227.05" xmlns="http://www.w3.org/2000/svg" data-type="color" role="presentation" aria-hidden="true" aria-label="">
    <g>
        <path d="M130.95 56.9a1.29 1.29 0 0 0-1.07-.14 44 44 0 0 0-9.58 4.48c-.76-3.12-3.89-5.35-7.11-6.64-1.75 1.46-7.1 8.5-5.53 15.11a23 23 0 0 0 8.79 11.89c.14.08.28-.41.43-.34s-.22.46-.08.55a23 23 0 0 0 14.69 1.66c6.52-2 9.94-10.1 10.32-12.35-2.72-2.14-6.22-3.73-9.3-2.83a44 44 0 0 0-.91-10.54 1.3 1.3 0 0 0-.65-.85m32.68 56.59a1.27 1.27 0 0 0-.42-1 44 44 0 0 0-8.67-6.05c2.33-2.22 2.69-6 2.2-9.48-2.14-.79-10.91-1.9-15.85 2.76a23.06 23.06 0 0 0-5.91 13.56c0 .16.5 0 .51.2s-.5.05-.51.21a23 23 0 0 0 5.91 13.55c4.94 4.67 13.71 3.56 15.85 2.77.49-3.44.13-7.26-2.2-9.48a44 44 0 0 0 8.67-6.05 1.26 1.26 0 0 0 .42-.99m-32.68 56.59a1.32 1.32 0 0 0 .65-.86 44 44 0 0 0 .91-10.54c3.08.9 6.58-.69 9.3-2.83-.38-2.25-3.8-10.4-10.32-12.35a23 23 0 0 0-14.69 1.66c-.14.09.21.46.08.55s-.29-.42-.44-.34a23 23 0 0 0-8.81 11.89c-1.57 6.61 3.78 13.65 5.53 15.11 3.22-1.29 6.35-3.52 7.11-6.64a44 44 0 0 0 9.57 4.48 1.3 1.3 0 0 0 1.11-.13m-65.35 0a1.3 1.3 0 0 0 1.08.13 44 44 0 0 0 9.57-4.48c.76 3.12 3.89 5.35 7.11 6.64 1.75-1.46 7.1-8.5 5.53-15.11a23 23 0 0 0-8.78-11.89c-.15-.08-.29.41-.44.34s.22-.46.08-.55a23 23 0 0 0-14.69-1.66c-6.52 1.95-9.94 10.1-10.32 12.35 2.72 2.14 6.22 3.73 9.3 2.83a44 44 0 0 0 .91 10.54 1.32 1.32 0 0 0 .68.86Zm-32.67-56.59a1.26 1.26 0 0 0 .42 1 44.4 44.4 0 0 0 8.67 6.06c-2.32 2.21-2.69 6-2.2 9.47 2.14.79 10.91 1.9 15.85-2.76a23 23 0 0 0 5.96-13.58c0-.16-.5 0-.51-.2s.5-.05.51-.21a22.94 22.94 0 0 0-6-13.54c-4.94-4.67-13.71-3.55-15.85-2.77-.49 3.44-.12 7.26 2.2 9.48a44 44 0 0 0-8.67 6.05 1.27 1.27 0 0 0-.38 1m32.7-56.59a1.3 1.3 0 0 0-.65.85 44.6 44.6 0 0 0-.91 10.54c-3.08-.9-6.57.69-9.3 2.84.39 2.24 3.81 10.39 10.32 12.34a23 23 0 0 0 14.69-1.66c.14-.09-.21-.45-.08-.55s.29.42.44.35a23.05 23.05 0 0 0 8.78-11.9c1.57-6.61-3.78-13.65-5.53-15.11-3.22 1.29-6.35 3.52-7.11 6.64a44 44 0 0 0-9.57-4.48 1.27 1.27 0 0 0-1.08.14m53.54 20.45c-2.08-3.76-3.05-8.19.23-11.67 2.52-2.66 6.3-4.35 9.78-5.67.59 3.67 1 7.79 0 11.31-1.42 4.58-5.75 5.95-10.04 6.03Zm20.87 36.14c2.2-3.68 5.56-6.74 10.21-5.64 3.57.85 6.92 3.28 9.81 5.64-2.89 2.35-6.24 4.78-9.81 5.63-4.68 1.1-8.04-1.96-10.24-5.63Zm-20.87 36.13c4.29.08 8.62 1.45 10 6 1.05 3.52.61 7.64 0 11.31-3.48-1.32-7.26-3-9.78-5.67-3.3-3.45-2.33-7.88-.25-11.64Zm-41.73 0c2.08 3.76 3.05 8.19-.23 11.67-2.52 2.66-6.3 4.35-9.78 5.67-.59-3.67-1-7.79 0-11.31 1.36-4.58 5.69-5.97 9.98-6.03Zm-20.87-36.13c-2.2 3.67-5.56 6.73-10.21 5.63-3.57-.85-6.92-3.28-9.81-5.63 2.89-2.36 6.24-4.79 9.81-5.64 4.62-1.1 7.98 1.96 10.18 5.64Zm20.87-36.14c-4.29-.08-8.62-1.45-10-6-1.05-3.52-.62-7.64 0-11.31 3.48 1.32 7.26 3 9.78 5.67 3.24 3.45 2.27 7.89.19 11.64Zm36.13-19.51c2.26 1.11 4.3 2.66 4.15 5.5a13.6 13.6 0 0 0-1.64 2c-2.08 3.09-2 6.66-.86 10a9.9 9.9 0 0 1-5-7.52c-.48-3.75 1.41-7.68 3.32-9.98ZM57.75 72.45c2.08-1.41 4.45-2.4 6.84-.85a13.7 13.7 0 0 0 .89 2.41c1.64 3.34 4.79 5 8.22 5.73a9.92 9.92 0 0 1-9 .59c-3.49-1.49-5.94-5.1-6.98-7.88Zm-15.26 55.64c-.18-2.51.15-5.05 2.68-6.35a14 14 0 0 0 2.54.44c3.71.25 6.76-1.63 9.07-4.25a9.87 9.87 0 0 1-4 8.1c-3.04 2.23-7.39 2.55-10.32 2.06Zm40.55 41c-2.26-1.11-4.29-2.66-4.15-5.5a13 13 0 0 0 1.64-2c2.08-3.09 2-6.66.86-10a9.9 9.9 0 0 1 5 7.52c.42 3.79-1.49 7.72-3.38 10.02Zm55.82-14.61c-2.08 1.41-4.44 2.4-6.84.85a13 13 0 0 0-.89-2.41c-1.64-3.34-4.79-5-8.22-5.73a9.92 9.92 0 0 1 9-.59c3.43 1.53 5.88 5.14 6.92 7.92Zm15.26-55.64c.18 2.51-.14 5.05-2.68 6.35a14 14 0 0 0-2.54-.44c-3.71-.25-6.76 1.63-9.07 4.25a9.87 9.87 0 0 1 4-8.1c2.98-2.22 7.33-2.5 10.26-2.02ZM131.9 80.31a9.92 9.92 0 0 1-9-.59c3.43-.69 6.58-2.39 8.22-5.73a13 13 0 0 0 .89-2.41c2.4-1.55 4.76-.56 6.84.85-1.06 2.8-3.51 6.41-6.98 7.92ZM86.4 67.78a9.9 9.9 0 0 1-5 7.52c1.11-3.32 1.22-6.89-.86-10a13 13 0 0 0-1.64-2c-.14-2.84 1.89-4.39 4.15-5.5 1.85 2.34 3.76 6.27 3.32 10.02Zm-33.59 33.14a9.87 9.87 0 0 1 4 8.1c-2.31-2.62-5.36-4.5-9.07-4.25a14 14 0 0 0-2.54.44c-2.53-1.3-2.86-3.84-2.68-6.35 2.87-.46 7.22-.18 10.26 2.1Zm11.9 45.66a9.92 9.92 0 0 1 9 .59c-3.43.69-6.58 2.39-8.22 5.73a13 13 0 0 0-.89 2.41c-2.4 1.55-4.76.56-6.84-.85 1-2.72 3.45-6.33 6.92-7.84Zm45.5 12.53a9.9 9.9 0 0 1 5-7.52c-1.11 3.32-1.22 6.89.86 10a13 13 0 0 0 1.64 2c.14 2.84-1.89 4.39-4.15 5.5-1.93-2.26-3.82-6.19-3.38-9.94Zm33.59-33.14a9.87 9.87 0 0 1-4-8.1c2.31 2.62 5.36 4.5 9.07 4.25a13.6 13.6 0 0 0 2.54-.44c2.54 1.3 2.86 3.84 2.69 6.35-2.94.55-7.29.23-10.33-2.02Z" fill="#ccad75" data-color="1"></path>
        <path d="M98.28 39.27a1.34 1.34 0 0 0 1-.4 36.7 36.7 0 0 0 5.91-7c1.61.87 3.33 1.62 5.1 2.36 3 1.26 6.21 2.57 8.56 4.91 2.69 2.68 4.47 8.8-.87 9.76-1.77.32-1 3 .75 2.7a7 7 0 0 0 5.61-6.68c.12-3.55-2.08-6.69-4.74-8.83-3.89-3.13-8.8-4.45-13.06-6.7a16.3 16.3 0 0 0 1.55-6.46c.15-7.42-6.81-16.52-9.81-23-3 6.44-9.95 15.54-9.8 23a16.3 16.3 0 0 0 1.55 6.46c-4.26 2.25-9.17 3.57-13.06 6.7-2.66 2.14-4.86 5.28-4.74 8.83a7 7 0 0 0 5.6 6.76c1.77.32 2.52-2.38.75-2.7-5.34-1-3.56-7.08-.87-9.76 2.35-2.34 5.56-3.65 8.56-4.91 1.77-.74 3.49-1.49 5.1-2.36a36.7 36.7 0 0 0 5.91 7 1.35 1.35 0 0 0 1 .32m64.27 37.11a1.34 1.34 0 0 0 .84.66 36.7 36.7 0 0 0 9 1.63c.06 1.83.26 3.69.51 5.6.41 3.23.88 6.66 0 9.86-1 3.68-5.39 8.28-8.89 4.14-1.16-1.38-3.13.62-2 2a7 7 0 0 0 8.62 1.51c3.14-1.67 4.77-5.14 5.29-8.52.76-4.93-.55-9.84-.73-14.66a16.3 16.3 0 0 0 6.44-1.92c6.5-3.58 10.9-14.16 15-20-7.07.63-18.43-.85-24.78 3a16.3 16.3 0 0 0-4.82 4.57c-4.08-2.57-7.68-6.16-12.33-8-3.18-1.24-7-1.56-10 .32a7 7 0 0 0-3 8.2c.61 1.68 3.32 1 2.71-.71-1.84-5.1 4.35-6.62 8-5.63 3.19.86 5.93 3 8.52 5 1.53 1.17 3 2.28 4.59 3.24a37.7 37.7 0 0 0-3.08 8.61 1.4 1.4 0 0 0 .11 1.1m0 74.21a1.34 1.34 0 0 0-.15 1.06 37.2 37.2 0 0 0 3.07 8.61c-1.55 1-3.06 2.07-4.59 3.23-2.59 2-5.33 4.1-8.52 5-3.68 1-9.86-.53-8-5.63.61-1.69-2.1-2.39-2.71-.71a7 7 0 0 0 3 8.2c3 1.88 6.84 1.56 10 .32 4.65-1.8 8.25-5.39 12.33-8a16.1 16.1 0 0 0 4.83 4.58c6.34 3.84 17.71 2.36 24.78 3-4.08-5.81-8.48-16.4-15-20a16.3 16.3 0 0 0-6.37-1.89c.18-4.82 1.49-9.73.73-14.66-.52-3.38-2.15-6.85-5.29-8.52a7 7 0 0 0-8.59 1.52c-1.15 1.37.81 3.37 2 2 3.5-4.14 7.91.46 8.89 4.14.85 3.19.38 6.63 0 9.86-.25 1.91-.45 3.77-.51 5.59a37.4 37.4 0 0 0-9 1.64 1.34 1.34 0 0 0-.9.66m-64.27 37.09a1.3 1.3 0 0 0-1 .4 37 37 0 0 0-5.92 7c-1.61-.87-3.33-1.62-5.1-2.36-3-1.26-6.21-2.57-8.56-4.91-2.69-2.68-4.47-8.8.87-9.76 1.77-.32 1-3-.75-2.7a7 7 0 0 0-5.61 6.68c-.12 3.55 2.08 6.7 4.74 8.83 3.89 3.13 8.8 4.46 13.06 6.7a16.3 16.3 0 0 0-1.55 6.47c-.15 7.41 6.81 16.51 9.81 22.95 3-6.44 10-15.54 9.8-22.95a16.3 16.3 0 0 0-1.55-6.47c4.26-2.25 9.17-3.57 13.06-6.7 2.66-2.13 4.86-5.28 4.74-8.83a7 7 0 0 0-5.61-6.68c-1.77-.32-2.52 2.38-.75 2.7 5.34 1 3.56 7.08.87 9.76-2.35 2.34-5.56 3.65-8.56 4.91-1.77.74-3.49 1.49-5.1 2.36a37 37 0 0 0-5.91-7 1.34 1.34 0 0 0-.98-.4M34 150.57a1.34 1.34 0 0 0-.84-.66 36.7 36.7 0 0 0-9-1.63c-.06-1.83-.26-3.69-.51-5.6-.41-3.23-.88-6.66 0-9.86 1-3.68 5.39-8.28 8.89-4.14 1.16 1.38 3.13-.62 2-2a7 7 0 0 0-8.59-1.52c-3.14 1.67-4.77 5.14-5.29 8.52-.76 4.93.55 9.84.73 14.66a16.3 16.3 0 0 0-6.37 1.89c-6.5 3.58-10.9 14.16-15 20 7.07-.63 18.43.85 24.78-3a16.2 16.2 0 0 0 4.83-4.55c4.08 2.57 7.68 6.16 12.33 8 3.18 1.24 7 1.56 10-.32a7 7 0 0 0 3-8.2c-.61-1.68-3.32-1-2.71.71 1.84 5.1-4.35 6.62-8 5.63-3.19-.86-5.93-3-8.52-5-1.53-1.16-3-2.27-4.59-3.23a37.7 37.7 0 0 0 3.08-8.61 1.4 1.4 0 0 0-.22-1.07Zm0-74.21a1.34 1.34 0 0 0 .16-1.06 37.7 37.7 0 0 0-3.08-8.61c1.55-1 3.06-2.07 4.59-3.23 2.59-2 5.33-4.1 8.52-5 3.68-1 9.87.53 8 5.63-.61 1.7 2.1 2.4 2.71.71a7 7 0 0 0-3-8.2c-3-1.88-6.84-1.55-10-.32-4.65 1.81-8.25 5.4-12.33 8a16.1 16.1 0 0 0-4.82-4.58c-6.35-3.84-17.71-2.36-24.78-3 4.07 5.81 8.47 16.39 15 20a16.3 16.3 0 0 0 6.37 1.89c-.18 4.82-1.49 9.73-.73 14.66.52 3.38 2.15 6.85 5.29 8.53a7 7 0 0 0 8.59-1.53c1.16-1.37-.81-3.37-2-2-3.5 4.14-7.91-.46-8.89-4.14-.85-3.19-.38-6.63 0-9.86.25-1.91.45-3.77.51-5.59a36.8 36.8 0 0 0 9-1.64 1.34 1.34 0 0 0 .89-.64ZM98.28 26.3a18.7 18.7 0 0 0 4.49 4.14 32.3 32.3 0 0 1-4.49 5.47 32 32 0 0 1-4.5-5.47 19 19 0 0 0 4.5-4.12Zm75.48 43.58a19.2 19.2 0 0 0-1.34 6 32 32 0 0 1-7-1.16 31.7 31.7 0 0 1 2.49-6.63 18.8 18.8 0 0 0 5.85 1.81Zm0 87.17a18.8 18.8 0 0 0-5.83 1.82 31.7 31.7 0 0 1-2.49-6.63 31.8 31.8 0 0 1 7-1.15 19.1 19.1 0 0 0 1.32 5.98Zm-75.48 43.63a19 19 0 0 0-4.5-4.14 32 32 0 0 1 4.5-5.47 32.3 32.3 0 0 1 4.49 5.47 18.7 18.7 0 0 0-4.49 4.14M22.79 157.1a19.1 19.1 0 0 0 1.34-6 31.8 31.8 0 0 1 7 1.16 31.7 31.7 0 0 1-2.49 6.63 18.8 18.8 0 0 0-5.85-1.82Zm0-87.17a18.8 18.8 0 0 0 5.84-1.85 31.7 31.7 0 0 1 2.49 6.63 31.8 31.8 0 0 1-7 1.16 19.1 19.1 0 0 0-1.33-5.97ZM98.28 6.22c2.54 4.77 6.07 9.29 6.85 14.63a13 13 0 0 1-1 7.14c-1.79-1.23-4.5-5-5.74-7.08a.6.6 0 0 0-.08-.13.4.4 0 0 0-.09.13c-1.24 2.08-3.95 5.85-5.74 7.08a13 13 0 0 1-1-7.14c.72-5.37 4.25-9.9 6.8-14.66Zm92.92 53.65c-2.86 4.58-5 9.9-9.25 13.25a13 13 0 0 1-6.7 2.68c.17-2.17 2.08-6.4 3.27-8.51 0-.05.05-.1.07-.14h-.16c-2.42 0-7-.49-9-1.43a13 13 0 0 1 5.67-4.46c5.01-2.04 10.7-1.24 16.1-1.42Zm0 107.29c-5.4-.18-11.09.62-16.1-1.38a13 13 0 0 1-5.67-4.46c2-.93 6.58-1.4 9-1.42h.16s0-.09-.07-.14c-1.19-2.11-3.1-6.34-3.27-8.51a13 13 0 0 1 6.7 2.68c4.24 3.3 6.39 8.62 9.25 13.2Zm-92.93 53.62c-2.54-4.76-6.07-9.29-6.85-14.63a13 13 0 0 1 1-7.14c1.79 1.23 4.5 5 5.74 7.08a.6.6 0 0 0 .09.14 1 1 0 0 0 .08-.14c1.24-2.08 3.95-5.85 5.74-7.08a13 13 0 0 1 1 7.14c-.72 5.34-4.25 9.87-6.8 14.63M5.35 167.13c2.86-4.58 5-9.9 9.25-13.25a13 13 0 0 1 6.7-2.67c-.17 2.16-2.08 6.39-3.27 8.5a1 1 0 0 0-.07.15h.16c2.42 0 7 .49 9 1.42a13 13 0 0 1-5.67 4.46c-5.01 2.01-10.7 1.21-16.1 1.39m0-107.29c5.4.18 11.09-.62 16.1 1.38a12.93 12.93 0 0 1 5.67 4.46c-2 .93-6.58 1.4-9 1.42h-.16l.07.14c1.19 2.11 3.1 6.34 3.27 8.5a13 13 0 0 1-6.7-2.67c-4.24-3.33-6.39-8.65-9.25-13.23" fill="#ccad75" data-color="1"></path>
        <path d="M146.53 29.9a28.7 28.7 0 0 0-7.74 3c-1.41-3.61-4.52-6.23-8.74-7.73a26.3 26.3 0 0 0-5 17.14 14.73 14.73 0 0 0 21.58 12.42 26.3 26.3 0 0 0 12.32-12.93c-3.41-2.91-7.23-4.29-11.06-3.71a28.7 28.7 0 0 0-1.36-8.19m48.26 83.59a28.7 28.7 0 0 0-6.44-5.23c2.42-3 3.14-7 2.32-11.43a26.25 26.25 0 0 0-17.36 4.2 14.74 14.74 0 0 0 0 24.91 26.25 26.25 0 0 0 17.36 4.2c.82-4.4.1-8.4-2.32-11.43a29 29 0 0 0 6.44-5.22m-48.26 83.58a28.6 28.6 0 0 0 1.31-8.19c3.83.58 7.65-.8 11.06-3.71a26.3 26.3 0 0 0-12.27-12.93 14.73 14.73 0 0 0-21.62 12.44 26.3 26.3 0 0 0 5 17.14c4.22-1.5 7.33-4.12 8.74-7.73a28.7 28.7 0 0 0 7.78 2.98m-96.51 0a29 29 0 0 0 7.74-3c1.41 3.6 4.52 6.22 8.74 7.72a26.3 26.3 0 0 0 5.05-17.11 14.75 14.75 0 0 0-21.58-12.45 26.3 26.3 0 0 0-12.34 12.94c3.41 2.91 7.23 4.29 11.06 3.71a29 29 0 0 0 1.33 8.19M1.76 113.49a29 29 0 0 0 6.44 5.22c-2.42 3-3.14 7-2.32 11.43a26.25 26.25 0 0 0 17.36-4.2 14.74 14.74 0 0 0 0-24.91 26.25 26.25 0 0 0-17.36-4.2c-.82 4.41-.1 8.4 2.32 11.43a28.7 28.7 0 0 0-6.44 5.23M50.02 29.9a29 29 0 0 0-1.31 8.19c-3.83-.58-7.65.8-11.06 3.71a26.3 26.3 0 0 0 12.32 12.93 14.74 14.74 0 0 0 21.58-12.45 26.3 26.3 0 0 0-5.05-17.14c-4.22 1.5-7.33 4.12-8.74 7.73a28.7 28.7 0 0 0-7.74-2.97m83.68 22.22c-2.53-4-1.62-8.95 1.29-12.54a17.1 17.1 0 0 1 3.61-3.31l.17-.11a34 34 0 0 1 6-3.14 34 34 0 0 1 .27 6.73 2 2 0 0 0 0 .21 17.5 17.5 0 0 1-1.05 4.78c-1.72 4.31-5.57 7.58-10.29 7.38m35.43 61.37c2.19-4.19 6.94-5.89 11.51-5.17a17.6 17.6 0 0 1 4.66 1.48l.19.09a34 34 0 0 1 5.69 3.59 34 34 0 0 1-5.69 3.6l-.19.09a17.2 17.2 0 0 1-4.67 1.51c-4.56.69-9.31-1-11.5-5.19m-35.43 61.36c4.72-.2 8.57 3.07 10.23 7.38a17.5 17.5 0 0 1 1.05 4.78 2 2 0 0 0 0 .21 34 34 0 0 1-.27 6.73 34 34 0 0 1-6-3.14l-.08-.13a17.1 17.1 0 0 1-3.61-3.31c-2.94-3.57-3.85-8.53-1.32-12.52m-70.85 0c2.53 4 1.62 8.95-1.29 12.54a17.1 17.1 0 0 1-3.61 3.31l-.17.11a33.2 33.2 0 0 1-6 3.14 34.5 34.5 0 0 1-.27-6.73 2 2 0 0 0 0-.21 17.5 17.5 0 0 1 1.05-4.78c1.72-4.31 5.57-7.55 10.29-7.38m-35.43-61.36c-2.19 4.18-6.94 5.88-11.51 5.16a17.3 17.3 0 0 1-4.66-1.48l-.19-.09a34 34 0 0 1-5.69-3.59 34 34 0 0 1 5.69-3.6.8.8 0 0 0 .19-.09 17.6 17.6 0 0 1 4.66-1.47c4.57-.73 9.32.97 11.51 5.16m35.43-61.37c-4.72.2-8.57-3.07-10.23-7.38a17.5 17.5 0 0 1-1.05-4.78 2 2 0 0 0 0-.21 34 34 0 0 1 .27-6.73 34.5 34.5 0 0 1 6 3.14l.17.12a17 17 0 0 1 3.61 3.3c2.85 3.59 3.76 8.55 1.23 12.54m68.35-23.44c2.23.53 4.46 3.58 5.16 5.82a19 19 0 0 0-4.47 4.59 14.07 14.07 0 0 0-2.35 9.64c-1.27-1.77-1.65-4.69-1.73-6.41a22 22 0 0 1 3.39-13.64M41.26 42.59c1.57-1.67 5.33-2.08 7.62-1.56a18.8 18.8 0 0 0 1.74 6.16 14.1 14.1 0 0 0 7.17 6.87c-2.16.21-4.88-.93-6.42-1.71a22.05 22.05 0 0 1-10.11-9.8ZM8.33 127.4c-.66-2.2.87-5.66 2.46-7.39a19 19 0 0 0 6.21 1.58 14.08 14.08 0 0 0 9.53-2.78c-.9 2-3.24 3.77-4.69 4.71a22.13 22.13 0 0 1-13.51 3.88m57 70.93c-2.23-.53-4.46-3.58-5.16-5.82a19 19 0 0 0 4.47-4.59 14.13 14.13 0 0 0 2.36-9.64c1.26 1.77 1.64 4.69 1.73 6.41a22 22 0 0 1-3.38 13.64Zm89.95-13.91c-1.58 1.67-5.34 2.08-7.63 1.56a18.8 18.8 0 0 0-1.74-6.16 14.1 14.1 0 0 0-7.17-6.87c2.16-.21 4.88.93 6.42 1.71a22.12 22.12 0 0 1 10.14 9.76Zm32.92-84.85c.66 2.2-.87 5.66-2.46 7.39a19 19 0 0 0-6.21-1.58 14.13 14.13 0 0 0-9.53 2.78c.9-2 3.24-3.77 4.69-4.71a22.15 22.15 0 0 1 13.53-3.88Zm-43-47.26c-1.53.78-4.26 1.92-6.42 1.71a14.1 14.1 0 0 0 7.17-6.87 18.8 18.8 0 0 0 1.74-6.16c2.29-.52 6-.11 7.63 1.56a22.12 22.12 0 0 1-10.14 9.76Zm-76.44-10c-.08 1.72-.46 4.64-1.73 6.41a14.07 14.07 0 0 0-2.35-9.64 19 19 0 0 0-4.47-4.59c.7-2.24 2.93-5.29 5.16-5.82a22 22 0 0 1 3.37 13.61Zm-46.9 61.18c1.45.93 3.79 2.72 4.69 4.7a14.13 14.13 0 0 0-9.53-2.78 19 19 0 0 0-6.21 1.58c-1.59-1.73-3.12-5.19-2.46-7.39a22.07 22.07 0 0 1 13.49 3.86Zm29.51 71.19c1.54-.78 4.26-1.92 6.42-1.7a14 14 0 0 0-7.17 6.86 18.8 18.8 0 0 0-1.74 6.16c-2.29.52-6.05.11-7.63-1.56a22.12 22.12 0 0 1 10.12-9.76m76.44 10c.08-1.72.46-4.64 1.73-6.41a14.13 14.13 0 0 0 2.35 9.64 19 19 0 0 0 4.47 4.59c-.7 2.24-2.93 5.29-5.16 5.82a22 22 0 0 1-3.39-13.64m46.9-61.17c-1.45-.94-3.79-2.73-4.69-4.71a14.08 14.08 0 0 0 9.53 2.78 19 19 0 0 0 6.21-1.58c1.59 1.73 3.12 5.19 2.46 7.39a22.15 22.15 0 0 1-13.51-3.87Z" fill="#ccad75" data-color="1"></path>
        <path d="M98.28 78.02c3.35-4.58 8.08-12.08 7.8-17.74a25.6 25.6 0 0 0-2.54-9.3c.81-2.34 1.67-4.8 3.42-6.63a9 9 0 0 1 3.41-2.24c3.73-1.61 6.2 2.42 2.39 3.28-.16-1.78-3.14-2.22-3.35.37-.25 3.06 4 3.87 6.34 1.82 2.2-1.9 2.42-5.64.12-7.38-3-2.28-6.38-1.14-8.93.54a14.3 14.3 0 0 0-5.11 6.84c-.77-1.42-1.57-2.81-2.35-4.17a1.41 1.41 0 0 0-2.41 0c-.78 1.36-1.58 2.75-2.35 4.17a14.3 14.3 0 0 0-5.11-6.84c-2.55-1.68-5.9-2.82-8.93-.54-2.3 1.74-2.08 5.48.12 7.38 2.37 2.05 6.59 1.24 6.34-1.82-.21-2.59-3.19-2.15-3.35-.37-3.81-.86-1.34-4.89 2.39-3.28a9 9 0 0 1 3.41 2.24c1.75 1.83 2.61 4.28 3.42 6.63a25.6 25.6 0 0 0-2.54 9.3c-.28 5.66 4.45 13.16 7.81 17.74m30.71 17.73c5.65.62 14.51 1 19.27-2.11a25.8 25.8 0 0 0 6.78-6.85c2.44-.46 5-1 7.45-.35a8.9 8.9 0 0 1 3.64 1.83c3.27 2.43 1 6.58-1.64 3.71 1.46-1 .35-3.83-2-2.71-2.77 1.31-1.36 5.37 1.6 6.4 2.75.95 6.09-.73 6.44-3.59.47-3.76-2.19-6.09-4.92-7.46a14.16 14.16 0 0 0-8.48-1c.85-1.38 1.65-2.77 2.43-4.12a1.36 1.36 0 0 0 0-1.39 1.38 1.38 0 0 0-1.19-.71h-4.79a14.14 14.14 0 0 0 3.37-7.84c.18-3.05-.51-6.52-4-8-2.66-1.12-5.78.93-6.33 3.79-.59 3.08 2.22 6.33 4.75 4.58 2.14-1.48.26-3.84-1.36-3.08-1.16-3.74 3.57-3.62 4 .43a9 9 0 0 1-.23 4.07c-.71 2.43-2.41 4.4-4 6.28a25.6 25.6 0 0 0-9.32 2.44c-5.05 2.61-9.18 10.49-11.47 15.68m0 35.47c2.29 5.19 6.42 13 11.46 15.63a25.6 25.6 0 0 0 9.32 2.44c1.63 1.89 3.33 3.85 4 6.29a9 9 0 0 1 .23 4.06c-.47 4.05-5.2 4.17-4 .43 1.62.76 3.49-1.6 1.36-3.08-2.53-1.74-5.34 1.5-4.75 4.58.55 2.86 3.67 4.92 6.33 3.79 3.49-1.48 4.18-4.95 4-8a14.2 14.2 0 0 0-3.37-7.84c1.62 0 3.22 0 4.79.05a1.38 1.38 0 0 0 1.19-.71 1.36 1.36 0 0 0 0-1.39c-.78-1.35-1.58-2.74-2.43-4.12a14.16 14.16 0 0 0 8.48-1c2.73-1.37 5.39-3.7 4.92-7.46-.35-2.86-3.69-4.54-6.44-3.59-3 1-4.37 5.09-1.6 6.4 2.35 1.12 3.46-1.68 2-2.71 2.65-2.87 4.91 1.28 1.64 3.71a8.9 8.9 0 0 1-3.64 1.83c-2.46.61-5 .12-7.45-.35a25.8 25.8 0 0 0-6.78-6.85c-4.75-3.08-13.62-2.72-19.26-2.11m-30.71 17.73c-3.36 4.58-8.09 12.08-7.81 17.75a25.6 25.6 0 0 0 2.54 9.29c-.81 2.35-1.67 4.81-3.42 6.63a9 9 0 0 1-3.41 2.24c-3.73 1.61-6.2-2.42-2.39-3.28.16 1.78 3.14 2.22 3.35-.37.25-3.06-4-3.87-6.34-1.82-2.2 1.9-2.42 5.64-.12 7.38 3 2.28 6.38 1.14 8.93-.54a14.3 14.3 0 0 0 5.11-6.84c.77 1.42 1.57 2.81 2.35 4.17a1.41 1.41 0 0 0 2.41 0c.78-1.36 1.58-2.75 2.35-4.17a14.3 14.3 0 0 0 5.11 6.84c2.55 1.68 5.9 2.82 8.93.54 2.3-1.74 2.08-5.48-.12-7.38-2.37-2-6.59-1.24-6.34 1.82.21 2.59 3.19 2.15 3.35.37 3.81.86 1.34 4.89-2.39 3.28a9 9 0 0 1-3.41-2.24c-1.75-1.82-2.61-4.28-3.42-6.63a25.6 25.6 0 0 0 2.54-9.29c.28-5.67-4.45-13.17-7.8-17.75m-30.72-17.73c-5.64-.61-14.51-1-19.27 2.11a25.7 25.7 0 0 0-6.77 6.85c-2.45.47-5 1-7.46.35a8.8 8.8 0 0 1-3.64-1.83c-3.27-2.43-1-6.58 1.65-3.71-1.47 1-.36 3.83 2 2.71 2.77-1.31 1.37-5.37-1.6-6.4-2.75-.95-6.09.73-6.44 3.59-.47 3.76 2.19 6.09 4.92 7.47a14.25 14.25 0 0 0 8.49 1c-.85 1.38-1.66 2.78-2.44 4.13a1.34 1.34 0 0 0 0 1.38 1.39 1.39 0 0 0 1.2.71c1.56 0 3.16 0 4.78-.05a14.2 14.2 0 0 0-3.37 7.84c-.18 3.06.51 6.52 4 8 2.66 1.13 5.78-.93 6.33-3.79.59-3.08-2.22-6.32-4.75-4.58-2.14 1.48-.27 3.84 1.36 3.08 1.16 3.74-3.57 3.62-4-.43a9 9 0 0 1 .23-4.06c.71-2.43 2.41-4.4 4-6.29a25.4 25.4 0 0 0 9.32-2.44c5.04-2.6 9.17-10.45 11.46-15.64m0-35.47c-2.29-5.19-6.42-13-11.46-15.63a25.6 25.6 0 0 0-9.32-2.44c-1.63-1.88-3.33-3.85-4-6.28a9 9 0 0 1-.23-4.07c.47-4 5.2-4.17 4-.43-1.62-.76-3.5 1.6-1.36 3.08 2.53 1.75 5.34-1.5 4.75-4.58-.55-2.86-3.67-4.91-6.33-3.79-3.49 1.48-4.18 4.95-4 8a14.14 14.14 0 0 0 3.37 7.84H38.2a1.39 1.39 0 0 0-1.2.71 1.36 1.36 0 0 0 0 1.39c.78 1.34 1.59 2.74 2.44 4.12a14.2 14.2 0 0 0-8.49 1c-2.73 1.37-5.39 3.7-4.92 7.46.35 2.86 3.7 4.54 6.44 3.59 3-1 4.37-5.09 1.6-6.4-2.35-1.12-3.46 1.68-2 2.71-2.66 2.87-4.92-1.28-1.65-3.71a9 9 0 0 1 3.64-1.83c2.46-.61 5-.12 7.46.35a25.7 25.7 0 0 0 6.77 6.85c4.76 2.99 13.63 2.68 19.27 2.06m30.72-48.82c2.36 4.13 4.74 8.62 5 13.34s-2.29 9.24-5 13.07c-2.72-3.83-5.26-8.34-5-13.07s2.63-9.21 5-13.34m57.64 33.28c-2.4 4.11-5.1 8.42-9.06 11s-9.14 2.64-13.82 2.21c2-4.28 4.59-8.73 8.81-10.87s9.31-2.33 14.07-2.34m0 66.55c-4.76 0-9.84-.2-14.07-2.34s-6.85-6.59-8.81-10.86c4.68-.44 9.85-.39 13.82 2.2s6.66 6.92 9.06 11m-57.64 33.28c-2.37-4.13-4.75-8.62-5-13.34s2.29-9.24 5-13.07c2.71 3.83 5.25 8.34 5 13.07s-2.65 9.21-5 13.34m-57.65-33.28c2.4-4.11 5.1-8.42 9.06-11s9.14-2.64 13.82-2.2c-2 4.27-4.59 8.72-8.81 10.86s-9.31 2.33-14.07 2.34m0-66.55c4.76 0 9.84.2 14.07 2.34s6.85 6.59 8.81 10.87c-4.68.43-9.85.38-13.82-2.21s-6.66-6.89-9.06-11" fill="#ccad75" data-color="1"></path>
    </g>
</svg>