<svg preserveAspectRatio="xMidYMid meet" data-bbox="1.312 1.32 234.675 234.157" viewBox="0 0 237.34 236.8" xmlns="http://www.w3.org/2000/svg" data-type="ugc" role="presentation" aria-hidden="true" aria-label="">
    <g>
        <path d="M118.67 117.43s-11.78-8.41-11.78-30.29 37-29.45 37-53-25.25-32.82-25.25-32.82S93.4 10.57 93.4 34.14s37 31.13 37 53-11.78 30.29-11.78 30.29" fill="none" stroke="#c28f40" stroke-linecap="round" stroke-linejoin="round" stroke-width="2.63"></path>
        <path d="M135.44 52.34a34.07 34.07 0 0 1 48.19 0 27.25 27.25 0 0 1 0 38.55 21.8 21.8 0 0 1-30.84 0 17.45 17.45 0 0 1 0-24.67 14 14 0 0 1 19.74 0 11.17 11.17 0 0 1 0 15.79" fill="none" stroke="#c28f40" stroke-linecap="round" stroke-linejoin="round" stroke-width="2.63"></path>
        <path d="M101.91 52.34a34.08 34.08 0 0 0-48.2 0 27.27 27.27 0 0 0 0 38.55 21.81 21.81 0 0 0 30.85 0 17.45 17.45 0 0 0 0-24.67 14 14 0 0 0-19.74 0 11.17 11.17 0 0 0 0 15.79" fill="none" stroke="#c28f40" stroke-linecap="round" stroke-linejoin="round" stroke-width="2.63"></path>
        <path d="M102.33 145.74s-1.4 14.41-20.35 25.35-44-17.34-64.42-5.56-15.8 38.27-15.8 38.27 20.64 17.24 41 5.46 8.5-47.6 27.44-58.6 32.13-4.95 32.13-4.95" fill="none" stroke="#c28f40" stroke-linecap="round" stroke-linejoin="round" stroke-width="2.63"></path>
        <path d="M37.57 163.77a34.07 34.07 0 0 1-24.09-41.74 27.25 27.25 0 0 1 33.38-19.27 21.81 21.81 0 0 1 15.43 26.71 17.45 17.45 0 0 1-21.37 12.33 14 14 0 0 1-9.87-17.09 11.17 11.17 0 0 1 13.67-7.9" fill="none" stroke="#c28f40" stroke-linecap="round" stroke-linejoin="round" stroke-width="2.63"></path>
        <path d="M54.34 192.81a34.09 34.09 0 0 0 24.1 41.74 27.26 27.26 0 0 0 33.38-19.28 21.8 21.8 0 0 0-15.42-26.71 17.45 17.45 0 0 0-21.37 12.34 14 14 0 0 0 9.87 17.09 11.17 11.17 0 0 0 13.68-7.9" fill="none" stroke="#c28f40" stroke-linecap="round" stroke-linejoin="round" stroke-width="2.63"></path>
        <path d="M135.02 145.74s13.18-6 32.12 4.95 7 46.79 27.4 58.57 41-5.46 41-5.46 4.61-26.49-15.79-38.27-45.48 16.5-64.43 5.56-20.34-25.35-20.34-25.35" fill="none" stroke="#c28f40" stroke-linecap="round" stroke-linejoin="round" stroke-width="2.63"></path>
        <path d="M183.01 192.81a34.09 34.09 0 0 1-24.1 41.74 27.28 27.28 0 0 1-33.39-19.28 21.81 21.81 0 0 1 15.42-26.71 17.44 17.44 0 0 1 21.37 12.34 14 14 0 0 1-9.87 17.09 11.16 11.16 0 0 1-13.67-7.9" fill="none" stroke="#c28f40" stroke-linecap="round" stroke-linejoin="round" stroke-width="2.63"></path>
        <path d="M199.77 163.77a34.08 34.08 0 0 0 24.1-41.74 27.26 27.26 0 0 0-33.39-19.27 21.8 21.8 0 0 0-15.42 26.71 17.44 17.44 0 0 0 21.37 12.33 14 14 0 0 0 9.87-17.09 11.18 11.18 0 0 0-13.68-7.9" fill="none" stroke="#c28f40" stroke-linecap="round" stroke-linejoin="round" stroke-width="2.63"></path>
        <path fill="none" stroke="#c28f40" stroke-linecap="round" stroke-linejoin="round" stroke-width="2.63" d="M137.54 136.31c0 10.422-8.448 18.87-18.87 18.87s-18.87-8.448-18.87-18.87 8.448-18.87 18.87-18.87 18.87 8.448 18.87 18.87"></path>
        <path d="M126.39 155.18a20.2 20.2 0 0 1 1.94 9.29c0 9.41-9.66 19.61-9.66 19.61s-9.65-10.2-9.65-19.61a20.15 20.15 0 0 1 1.94-9.3" fill="none" stroke="#c28f40" stroke-linecap="round" stroke-linejoin="round" stroke-width="2.63"></path>
        <path d="M131.13 120.19a20.2 20.2 0 0 1 7.08-6.33c8.14-4.7 21.81-1.44 21.81-1.44s-4 13.46-12.16 18.16a20.1 20.1 0 0 1-9 3" fill="none" stroke="#c28f40" stroke-linecap="round" stroke-linejoin="round" stroke-width="2.63"></path>
        <path d="M98.47 133.55a20.26 20.26 0 0 1-9-3c-8.14-4.7-12.15-18.16-12.15-18.16s13.66-3.26 21.8 1.44a20.2 20.2 0 0 1 7.09 6.33" fill="none" stroke="#c28f40" stroke-linecap="round" stroke-linejoin="round" stroke-width="2.63"></path>
        <path fill="none" stroke="#c28f40" stroke-linecap="round" stroke-linejoin="round" stroke-width="2.63" d="M118.67 66.91V32.53"></path>
        <path fill="none" stroke="#c28f40" stroke-linecap="round" stroke-linejoin="round" stroke-width="2.63" d="M58.57 171.01 28.8 188.2"></path>
        <path fill="none" stroke="#c28f40" stroke-linecap="round" stroke-linejoin="round" stroke-width="2.63" d="m178.77 171.01 29.77 17.19"></path>
    </g>
</svg>