<svg preserveAspectRatio="xMidYMid meet" data-bbox="1.32 1.33 179.74 179.73" viewBox="0 0 182.37 182.37" xmlns="http://www.w3.org/2000/svg" data-type="ugc" role="presentation" aria-hidden="true" aria-label="">
    <g>
        <path d="M68.67 51.24c0-24.82 22.52-49.91 22.52-49.91a114.6 114.6 0 0 1 15.08 22.6" fill="none" stroke="#c28f40" stroke-linecap="round" stroke-linejoin="round" stroke-width="2.63"/>
        <path d="M112.85 42.57a46.6 46.6 0 0 1 .85 8.65" fill="none" stroke="#c28f40" stroke-linecap="round" stroke-linejoin="round" stroke-width="2.63"/>
        <path d="M132.96 91.08c-18.73 14.77-37.26 16.14-47.53 5.86-11.75-11.74-8.27-34.26 13-55.55s64.07-21.53 64.07-21.53-.13 23.53-8.89 44.38" fill="none" stroke="#c28f40" stroke-linecap="round" stroke-linejoin="round" stroke-width="2.63"/>
        <path d="M131.15 68.67c24.82 0 49.91 22.51 49.91 22.51a114.4 114.4 0 0 1-22.6 15.06" fill="none" stroke="#c28f40" stroke-linecap="round" stroke-linejoin="round" stroke-width="2.63"/>
        <path d="M139.8 112.85a46.6 46.6 0 0 1-8.65.85" fill="none" stroke="#c28f40" stroke-linecap="round" stroke-linejoin="round" stroke-width="2.63"/>
        <path d="M91.29 132.96c-14.76-18.73-16.14-37.26-5.86-47.53 11.74-11.75 34.26-8.27 55.55 13s21.53 64.07 21.53 64.07-23.53-.14-44.38-8.89" fill="none" stroke="#c28f40" stroke-linecap="round" stroke-linejoin="round" stroke-width="2.63"/>
        <path d="M113.7 131.15c0 24.82-22.51 49.91-22.51 49.91a114.4 114.4 0 0 1-15.09-22.6" fill="none" stroke="#c28f40" stroke-linecap="round" stroke-linejoin="round" stroke-width="2.63"/>
        <path d="M69.52 139.8a46.6 46.6 0 0 1-.85-8.65" fill="none" stroke="#c28f40" stroke-linecap="round" stroke-linejoin="round" stroke-width="2.63"/>
        <path d="M49.41 91.29c18.73-14.77 37.26-16.14 47.53-5.86 11.75 11.74 8.28 34.26-13 55.55s-64.03 21.53-64.03 21.53.14-23.53 8.89-44.38" fill="none" stroke="#c28f40" stroke-linecap="round" stroke-linejoin="round" stroke-width="2.63"/>
        <path d="M51.22 113.7c-24.82 0-49.9-22.52-49.9-22.52A114.4 114.4 0 0 1 23.91 76.1" fill="none" stroke="#c28f40" stroke-linecap="round" stroke-linejoin="round" stroke-width="2.63"/>
        <path d="M42.57 69.52a46.7 46.7 0 0 1 8.65-.85" fill="none" stroke="#c28f40" stroke-linecap="round" stroke-linejoin="round" stroke-width="2.63"/>
        <path d="M91.08 49.41c14.77 18.73 16.14 37.26 5.86 47.53-11.74 11.75-34.26 8.27-55.54-13S19.91 19.86 19.91 19.86s23.54.14 44.38 8.89" fill="none" stroke="#c28f40" stroke-linecap="round" stroke-linejoin="round" stroke-width="2.63"/>
        <path fill="none" stroke="#c28f40" stroke-linecap="round" stroke-linejoin="round" stroke-width="2.63" d="m113.7 68.67 27.95-27.95"/>
        <path fill="none" stroke="#c28f40" stroke-linecap="round" stroke-linejoin="round" stroke-width="2.63" d="m113.7 113.7 27.95 27.95"/>
        <path fill="none" stroke="#c28f40" stroke-linecap="round" stroke-linejoin="round" stroke-width="2.63" d="m68.67 113.7-27.95 27.95"/>
        <path fill="none" stroke="#c28f40" stroke-linecap="round" stroke-linejoin="round" stroke-width="2.63" d="M68.67 68.67 40.72 40.72"/>
    </g>
</svg>