<svg preserveAspectRatio="xMidYMid meet" data-bbox="1.31 1.257 206.88 200.183" viewBox="0 0 209.5 202.75" xmlns="http://www.w3.org/2000/svg" data-type="ugc" role="presentation" aria-hidden="true" aria-label="">
    <g>
        <path d="M104.75 95.43 87.02 77.7l61.2-61.19s-13.5-32.52-43.47-2.55c-30-30-43.47 2.55-43.47 2.55l61.2 61.19z" fill="none" stroke="#c28f40" stroke-linecap="round" stroke-linejoin="round" stroke-width="2.63"></path>
        <path fill="none" stroke="#c28f40" stroke-linecap="round" stroke-linejoin="round" stroke-width="2.63" d="M104.75 60.02V25.45"></path>
        <path d="M143.79 43.73c-15.28 15.28-39 16.29-39 16.29s1-23.77 16.29-39 39-16.28 39-16.28-1.01 23.69-16.29 38.99" fill="none" stroke="#c28f40" stroke-linecap="round" stroke-linejoin="round" stroke-width="2.63"></path>
        <path d="m104.75 95.43-22.34 11.38L43.12 29.7S8.03 32.49 27.27 70.26c-37.77 19.24-11 42.12-11 42.12l77.1-39.25z" fill="none" stroke="#c28f40" stroke-linecap="round" stroke-linejoin="round" stroke-width="2.63"></path>
        <path fill="none" stroke="#c28f40" stroke-linecap="round" stroke-linejoin="round" stroke-width="2.63" d="M71.03 84.52 38.16 73.83"></path>
        <path d="M67.61 42.35c9.81 19.25 3.42 42.16 3.42 42.16s-22.29-8.3-32.1-27.55-3.42-42.17-3.42-42.17 22.29 8.31 32.1 27.56" fill="none" stroke="#c28f40" stroke-linecap="round" stroke-linejoin="round" stroke-width="2.63"></path>
        <path d="m104.75 95.43 3.92 24.76-85.48 13.54s-8.22 34.28 33.67 27.7c6.63 41.86 36.67 23.49 36.67 23.49L79.97 99.43z" fill="none" stroke="#c28f40" stroke-linecap="round" stroke-linejoin="round" stroke-width="2.63"></path>
        <path fill="none" stroke="#c28f40" stroke-linecap="round" stroke-linejoin="round" stroke-width="2.63" d="M83.91 124.15 63.6 152.12"></path>
        <path d="M42.75 114.43c21.34-3.38 41.16 9.77 41.16 9.77s-14.78 18.63-36.12 22-41.17-9.77-41.17-9.77 14.79-18.67 36.13-22" fill="none" stroke="#c28f40" stroke-linecap="round" stroke-linejoin="round" stroke-width="2.63"></path>
        <path d="m104.75 95.43 24.76 4-13.54 85.44s30 18.37 36.66-23.49c41.87 6.63 33.68-27.61 33.68-27.61l-85.48-13.54z" fill="none" stroke="#c28f40" stroke-linecap="round" stroke-linejoin="round" stroke-width="2.63"></path>
        <path fill="none" stroke="#c28f40" stroke-linecap="round" stroke-linejoin="round" stroke-width="2.63" d="m125.59 124.15 20.32 27.97"></path>
        <path d="M103.57 160.28c3.38-21.35 22-36.13 22-36.13s13.15 19.82 9.77 41.16-22 36.13-22 36.13-13.15-19.82-9.77-41.16" fill="none" stroke="#c28f40" stroke-linecap="round" stroke-linejoin="round" stroke-width="2.63"></path>
        <path d="m104.75 95.43 11.38-22.34 77.11 39.34s26.75-22.88-11-42.12c19.24-37.77-15.85-40.56-15.85-40.56l-39.29 77.11z" fill="none" stroke="#c28f40" stroke-linecap="round" stroke-linejoin="round" stroke-width="2.63"></path>
        <path fill="none" stroke="#c28f40" stroke-linecap="round" stroke-linejoin="round" stroke-width="2.63" d="m138.47 84.52 32.87-10.69"></path>
        <path d="M166.02 116.62c-19.25-9.81-27.55-32.11-27.55-32.11s22.91-6.38 42.16 3.43 27.56 32.1 27.56 32.1-22.92 6.39-42.17-3.42" fill="none" stroke="#c28f40" stroke-linecap="round" stroke-linejoin="round" stroke-width="2.63"></path>
        <path d="M65.71 43.73c15.27 15.28 39 16.29 39 16.29s-1-23.77-16.29-39-39-16.28-39-16.28 1.01 23.69 16.29 38.99" fill="none" stroke="#c28f40" stroke-linecap="round" stroke-linejoin="round" stroke-width="2.63"></path>
        <path d="M141.89 42.35c-9.81 19.25-3.42 42.16-3.42 42.16s22.29-8.3 32.1-27.55 3.4-42.17 3.4-42.17-22.27 8.31-32.08 27.56" fill="none" stroke="#c28f40" stroke-linecap="round" stroke-linejoin="round" stroke-width="2.63"></path>
        <path d="M166.75 114.43c-21.34-3.38-41.16 9.77-41.16 9.77s14.78 18.63 36.12 22 41.16-9.77 41.16-9.77-14.78-18.67-36.12-22" fill="none" stroke="#c28f40" stroke-linecap="round" stroke-linejoin="round" stroke-width="2.63"></path>
        <path d="M105.97 160.28c-3.38-21.35-22-36.13-22-36.13s-13.15 19.82-9.77 41.16 22 36.13 22 36.13 13.11-19.82 9.77-41.16" fill="none" stroke="#c28f40" stroke-linecap="round" stroke-linejoin="round" stroke-width="2.63"></path>
        <path d="M43.48 116.62c19.25-9.81 27.55-32.11 27.55-32.11s-22.91-6.38-42.16 3.43-27.56 32.1-27.56 32.1 22.91 6.39 42.17-3.42" fill="none" stroke="#c28f40" stroke-linecap="round" stroke-linejoin="round" stroke-width="2.63"></path>
    </g>
</svg>