<svg preserveAspectRatio="xMidYMid meet" data-bbox="1.306 1.303 240.864 233.233" viewBox="0 0 243.47 235.83" xmlns="http://www.w3.org/2000/svg" data-type="ugc" role="presentation" aria-hidden="true" aria-label="">
    <g>
        <path d="M108.67 55.89a17.79 17.79 0 1 1 25.63.52l-9.06 9 17.21 17.81 9.41-9.3a42.53 42.53 0 1 0-59.6.51l48.22 48.56 11.93-23.41Z" fill="none" stroke="#c28f40" stroke-linecap="round" stroke-linejoin="round" stroke-width="2.63"/>
        <path d="m145.76 112.53-46-45.95a31.59 31.59 0 1 1 44.29-.38l-9.19 9.21" fill="none" stroke="#c28f40" stroke-linecap="round" stroke-linejoin="round" stroke-width="2.63"/>
        <path d="m132.86 73.31 9.17-9.16a28.44 28.44 0 0 0 8.44-20.31 28.71 28.71 0 1 0-49.8 19.46l.3.31 46.16 46.16" fill="none" stroke="#c28f40" stroke-linecap="round" stroke-linejoin="round" stroke-width="2.63"/>
        <path d="M51.27 116.59a17.8 17.8 0 1 1 8.42-24.22l5.79 11.41 22.25-10.86-6-11.79a42.53 42.53 0 1 0-17.87 56.83l61-30.85-18.58-18.57Z" fill="none" stroke="#c28f40" stroke-linecap="round" stroke-linejoin="round" stroke-width="2.63"/>
        <path d="m116.6 98.81-57.91 29.51a31.6 31.6 0 0 1-44.9-37.65 31.62 31.62 0 0 1 58.23-4.59l5.91 11.61" fill="none" stroke="#c28f40" stroke-linecap="round" stroke-linejoin="round" stroke-width="2.63"/>
        <path d="m75.31 98.98-5.88-11.55a28.7 28.7 0 1 0-13.57 39.07l.39-.18 58.16-29.64" fill="none" stroke="#c28f40" stroke-linecap="round" stroke-linejoin="round" stroke-width="2.63"/>
        <path d="M91.26 189.93a17.79 17.79 0 1 1-20.4-15.5l12.64-2-3.46-24.52-13.05 2a42.53 42.53 0 1 0 48.51 34.62l-10.47-67.62-23.41 11.92Z" fill="none" stroke="#c28f40" stroke-linecap="round" stroke-linejoin="round" stroke-width="2.63"/>
        <path d="m94.55 122.3 10.17 64.2a31.59 31.59 0 1 1-36.06-25.73l12.87-2" fill="none" stroke="#c28f40" stroke-linecap="round" stroke-linejoin="round" stroke-width="2.63"/>
        <path d="m81.94 161.62-12.8 2a28.71 28.71 0 1 0 33 25l-.06-.43-10.22-64.45" fill="none" stroke="#c28f40" stroke-linecap="round" stroke-linejoin="round" stroke-width="2.63"/>
        <path d="M173.37 174.56a17.79 17.79 0 1 1-21.05 14.66l2-12.64-24.38-4.29-2.08 13.04a42.53 42.53 0 1 0 47.92-35.44l-67.55-10.94 4.11 25.95Z" fill="none" stroke="#c28f40" stroke-linecap="round" stroke-linejoin="round" stroke-width="2.63"/>
        <path d="m110.07 150.54 64.19 10.16a31.59 31.59 0 1 1-35.61 26.34l2-12.87" fill="none" stroke="#c28f40" stroke-linecap="round" stroke-linejoin="round" stroke-width="2.63"/>
        <path d="m143.57 174.68-2 12.8a28.7 28.7 0 1 0 34-23.63l-.42-.07-64.48-10.21" fill="none" stroke="#c28f40" stroke-linecap="round" stroke-linejoin="round" stroke-width="2.63"/>
        <path d="M184.13 91.72a17.79 17.79 0 1 1 7.42 24.5l-11.39-5.83-11.61 21.87 11.76 6a42.53 42.53 0 1 0-18.9-56.52l-31.28 60.86 26 4.11Z" fill="none" stroke="#c28f40" stroke-linecap="round" stroke-linejoin="round" stroke-width="2.63"/>
        <path d="m175.03 120.1 11.55 5.88a28.42 28.42 0 0 0 21.92 1.75 28.7 28.7 0 1 0-33.9-41.34l-.2.37-29.63 58.17-3.05-.43 29.51-57.91a31.33 31.33 0 0 1 18.63-16.21 31.6 31.6 0 1 1-4.59 58.21l-11.61-5.91" fill="none" stroke="#c28f40" stroke-linecap="round" stroke-linejoin="round" stroke-width="2.63"/>
    </g>
</svg>
