<svg xmlns="http://www.w3.org/2000/svg" viewBox="0 0 96 96" fill="none" aria-hidden="true">
  <path d="M48 9 75 25.5 69 66 48 87 27 66 21 25.5 48 9Z" stroke="#c6923e" stroke-width="2.2" stroke-linejoin="round"/>
  <path d="M21 25.5h54M27 66h42M48 9 38.5 25.5 48 66l9.5-40.5L48 9Z" stroke="#c6923e" stroke-width="1.7" stroke-linejoin="round"/>
  <path d="M38.5 25.5 27 66M57.5 25.5 69 66M48 66v21" stroke="#c6923e" stroke-width="1.7" stroke-linecap="round" stroke-linejoin="round"/>
  <path d="M14 45c6-1.8 10.2-6 12-12M70 18c5.2-1.1 8.9-4.8 10-10M78 52c3.7-1.1 6.3-3.7 7.4-7.4" stroke="#c6923e" stroke-width="1.5" stroke-linecap="round"/>
</svg>
