<svg preserveAspectRatio="xMidYMid meet" viewBox="40.901 165.416 295.112 24.703" xmlns="http://www.w3.org/2000/svg">
    <g fill="#6D5C3A">
        <path d="m57.962 181.26-4.89-14.547q-.113-.34 0-.61.123-.28.546-.281h4.984q.544.001.813.266.282.25.422.625l7.562 22.375 2.563-7.797-4.89-14.578a.92.92 0 0 1 .015-.61q.122-.28.531-.281h5q.544.001.813.266.281.25.421.625l1.641 5q.059.127.094.296a.5.5 0 0 1-.031.344L67.774 189.4c-.093.25-.242.375-.437.375H61.79q-.438.002-.766-.266a1.64 1.64 0 0 1-.468-.625l-2.36-6.953-2.531 7.469q-.143.375-.437.375H49.68q-.456.002-.782-.266a1.7 1.7 0 0 1-.453-.625l-7.5-22.171a.92.92 0 0 1 .016-.61q.122-.28.531-.281h5q.544.001.813.266.28.25.422.625l7.562 22.375Zm0 0" fill="#222222"></path>
        <path d="M78.131 189.775h-5.375q-.408.002-.547-.266-.129-.28 0-.625l9.922-22.171q.17-.375.5-.625.328-.265.672-.266h2.078q.452.001.781.266c.22.167.368.375.453.625l9.922 22.171q.141.345 0 .625c-.086.18-.265.266-.547.266h-4.984q-.456.001-.766-.25-.298-.264-.468-.64l-2.532-5.641H76.35l2.531 5.64q.171.376-.016.641-.187.251-.734.25m8.906-7.016-5.797-12.968-5.437 12.218.344.75Zm0 0" fill="#222222"></path>
        <path d="M114.605 184.4v4.484q0 .891-.75.891H98.652q-.75 0-.75-.89v-22.172q0-.891.75-.891h4.344c.508 0 .766.297.766.89v22.579h2.453l5.89-4.953q.373-.28.781-.547.422-.282.766-.282h.203q.75 0 .75.891m0 0" fill="#222222"></path>
        <path d="M132.94 184.4v4.484q0 .891-.75.891h-15.204q-.75 0-.75-.89v-22.172q0-.891.75-.891h4.344q.764 0 .766.89v22.579h2.453l5.89-4.953c.25-.188.508-.368.782-.547q.42-.282.765-.282h.203q.75 0 .75.891m0 0" fill="#222222"></path>
        <path d="M142.71 188.884v-22.171q0-.891.75-.891h9.25q6.218 0 9.516 2.86 3.311 2.86 3.312 9.077 0 6.237-3.312 9.125-3.3 2.893-9.516 2.891h-9.25q-.75 0-.75-.89m6.188-22.578v22.985h2.718q1.5 0 2.828-.985 1.341-.996 2.36-2.656c.687-1.102 1.226-2.336 1.625-3.703q.61-2.062.61-4.188 0-2.108-.61-4.14c-.399-1.364-.938-2.598-1.625-3.703q-1.019-1.67-2.36-2.641-1.328-.968-2.828-.969Zm0 0" fill="#222222"></path>
        <path d="M168.944 165.822H185.1q.75 0 .75.89v4.485q0 .89-.75.89h-.203c-.23 0-.484-.085-.765-.265a23 23 0 0 1-.782-.563l-5.875-4.953h-3.421v11.188l9.406-.172v.812l-9.406-.171v11.328h3.421l9.172-6.422a.7.7 0 0 1 .172-.11.6.6 0 0 1 .156-.03.37.37 0 0 1 .22.062l.405.312q.14.111.11.234-.02.112-.078.25l-2.125 5.297a1.9 1.9 0 0 1-.36.657c-.148.156-.343.234-.593.234h-15.61q-.75 0-.75-.89v-22.172q0-.891.75-.891m0 0" fill="#222222"></path>
        <path d="M187.664 177.76q0-6.218 3.297-9.282c2.195-2.039 5.375-3.062 9.531-3.062l7.969.343q.48.035.61.25.14.222.14.641v4.438q0 .627-.469.828l-.422.172a1 1 0 0 1-.187.046 1 1 0 0 1-.188.016q-.41.001-.75-.344l-6.219-5.922c-.937 0-1.82.36-2.64 1.079q-1.235 1.077-2.172 2.859a17.6 17.6 0 0 0-1.469 3.86 16.2 16.2 0 0 0-.531 4.077q0 1.987.531 4.079a17.4 17.4 0 0 0 1.469 3.875q.937 1.768 2.172 2.843c.82.719 1.703 1.078 2.64 1.078l6.22-5.921q.339-.342.75-.344.105 0 .187.031.094.017.187.047l.422.172q.47.203.469.812v4.453q0 .41-.14.625-.13.207-.61.266l-7.969.344c-4.156 0-7.336-1.02-9.531-3.063q-3.298-3.06-3.297-9.297m0 0" fill="#222222"></path>
        <path d="M223.654 165.416q6.592.002 9.781 3.062 3.188 3.065 3.188 9.281 0 6.237-3.188 9.297-3.189 3.064-9.781 3.063-6.61 0-9.797-3.063-3.174-3.06-3.172-9.297-.002-6.216 3.172-9.28 3.187-3.061 9.797-3.063m0 .297q-1.409 0-2.594 1.125-1.173 1.112-2.047 2.906-.879 1.798-1.36 3.906a18.8 18.8 0 0 0-.468 4.11q0 1.987.469 4.109.48 2.128 1.36 3.922.873 1.799 2.046 2.906 1.186 1.112 2.594 1.11 1.389.002 2.578-1.11 1.185-1.107 2.047-2.906a18.2 18.2 0 0 0 1.36-3.922q.481-2.122.483-4.11-.002-2.013-.484-4.109a18.4 18.4 0 0 0-1.36-3.906q-.861-1.793-2.046-2.906-1.19-1.125-2.578-1.125m0 0" fill="#222222"></path>
        <path d="M260.353 189.775h-5.094c-.531 0-1.039-.297-1.515-.89l-7.625-10.063h-1.328v10.062q-.002.891-.766.891h-4.344q-.75 0-.75-.89v-22.172q0-.891.75-.891h8.484q3.593 0 5.704.61 2.107.597 3.03 1.968.922 1.36.923 3.688 0 3.221-2.188 4.984-2.19 1.751-7.468 1.75h-1.391q.576.72 1.328 1.266c.5.367 1.21.652 2.14.859q1.39.314 3.876.312.281.001.562.032.293.033.469.265l5.656 7.328q.233.316.11.61-.112.28-.563.281m-13.312-23.469h-2.25v12.047h2.25q2.357.001 3.437-1.516 1.078-1.527 1.078-4.75 0-3.216-1.078-4.5-1.08-1.278-3.437-1.28m0 0" fill="#222222"></path>
        <path d="M273.821 189.775h-5.375q-.408.002-.547-.266-.129-.28 0-.625l9.922-22.171q.17-.375.5-.625.328-.265.672-.266h2.078q.452.001.781.266c.22.167.368.375.454.625l9.921 22.171q.141.345 0 .625c-.086.18-.265.266-.546.266h-4.985q-.456.001-.766-.25-.299-.264-.468-.64l-2.531-5.641H272.04l2.531 5.64q.171.376-.016.641-.188.251-.734.25m8.906-7.016-5.796-12.968-5.438 12.218.344.75Zm0 0" fill="#222222"></path>
        <path d="M315.013 189.775h-5.094c-.531 0-1.039-.297-1.515-.89l-7.625-10.063h-1.329v10.062q-.001.891-.765.891h-4.344q-.75 0-.75-.89v-22.172q0-.891.75-.891h8.484q3.593 0 5.704.61 2.108.597 3.03 1.968.922 1.36.923 3.688 0 3.221-2.188 4.984-2.19 1.751-7.469 1.75h-1.39q.576.72 1.328 1.266c.5.367 1.21.652 2.14.859q1.39.314 3.876.312.281.001.562.032.293.033.469.265l5.656 7.328q.233.316.11.61-.112.28-.563.281m-13.312-23.469h-2.25v12.047h2.25q2.357.001 3.437-1.516 1.078-1.527 1.078-4.75 0-3.216-1.078-4.5-1.08-1.278-3.437-1.28m0 0" fill="#222222"></path>
        <path d="M336.013 166.713v6.437q0 .61-.469.61h-.219q-.235.001-.453-.266a58 58 0 0 0-.5-.625l-5-6.563h-1.093v22.578q0 .891-.75.891h-4.344q-.75 0-.75-.89v-22.579h-1.094l-5 6.563q-.236.344-.484.625c-.157.18-.313.265-.469.265h-.219q-.469 0-.469-.609v-6.437q0-.891.75-.891h19.813q.75 0 .75.89m0 0" fill="#222222"></path>
    </g>
</svg>